<?xml version="1.0"?>
<svg xmlns="http://www.w3.org/2000/svg" height="63px" viewBox="0 0 60 60" width="63px" class=""><g><g id="055---Comic-Collecting" fill="none"><g id="Icons" transform="translate(1 1)"><path id="Shape" d="m32 1v28.25c-4.0266439 2.8870493-5.8625402 7.9536464-4.62 12.75h-25.38c-1.10320187.0032948-1.9967052.8967981-2 2v-42c.0032948-1.10320187.89679813-1.9967052 2-2h29c.5522847 0 1 .44771525 1 1z" fill="#ffdc00" data-original="#FFDC00" class="" style="fill:#FFDC00"/><path id="Shape" d="m29.25 46h-27.25c-1.1045695 0-2-.8954305-2-2s.8954305-2 2-2h25.38c.3657302 1.4392494 1.0001997 2.7964034 1.87 4z" fill="#ff9801" data-original="#FF9801" class=""/><path id="Shape" d="m25 17v12.14c.0252759 2.8705243-1.5052662 5.5298411-4 6.95v-3.09c0-1.6568542-1.3431458-3-3-3h-4c-1.6568542 0-3 1.3431458-3 3v3.09c-2.49302405-1.4218761-4.02293216-4.0800915-4-6.95v-12.14c-.00207898-.3842967.21625178-.7357863.56167105-.9042315s.75680912-.1240415 1.05832895.1142315c4.154 3.264 3.382 2.7 3.99 3.19 2.2290997-.5285254 4.5509003-.5285254 6.78 0 3.146-2.519 2.237-1.814 3.99-3.19.3015198-.238273.7129097-.2826767 1.0583289-.1142315.3454193.1684452.5637501.5199348.5616711.9042315z" fill="#607d8b" data-original="#607D8B" class="" style="fill:#607D8B"/><path id="Shape" d="m23.38 16.21-1.38 1.1v11.83c-.0001075 1.3618164-.3440722 2.7015586-1 3.895v3.055c2.4947338-1.4201589 4.0252759-4.0794757 4-6.95v-12.14c.002079-.3842967-.2162518-.7357863-.5616711-.9042315-.3454192-.1684452-.7568091-.1240415-1.0583289.1142315z" fill="#37474f" data-original="#37474F" class="active-path" style="fill:#607D8B" data-old_color="#37474f"/><path id="Shape" d="m21 33v3.09c-1.0694978.5980284-2.2746586.9113703-3.5.91-2.875 0-4.489.212-6.5-.91v-3.09c0-1.6568542 1.3431458-3 3-3h4c1.6568542 0 3 1.3431458 3 3z" fill="#dfc49c" data-original="#DFC49C"/><path id="Shape" d="m18 33v3.09c-2.1754104 1.2140625-4.8245896 1.2140625-7 0v-3.09c0-1.6568542 1.3431458-3 3-3h1c1.6568542 0 3 1.3431458 3 3z" fill="#ffe0b2" data-original="#FFE0B2" class=""/><path id="Shape" d="m49.34 45.1c-2.8569733 4.8437025-8.693409 7.055103-14.0427797 5.3207489-5.3493706-1.734354-8.7779566-6.949627-8.2493629-12.5482286.5285936-5.5986015 4.872695-10.0800139 10.4521426-10.7825203 4.5392115-.5598417 9.0028272 1.5048857 11.5152698 5.3265994s2.6383164 8.7381272.3247302 12.6834006z" fill="#707070" data-original="#707070" class="" style="fill:#9E9E9E" data-old_color="#707070"/><path id="Shape" d="m46.34 45.1c-1.8866668 3.2023339-5.1519908 5.3484348-8.84 5.81-6.0146773-.7408181-10.5330644-5.8498718-10.5330644-11.91s4.5183871-11.1691819 10.5330644-11.91c4.006347.5108015 7.4881571 2.9999645 9.2677322 6.6255468 1.7795751 3.6255822 1.6188797 7.9026269-.4277322 11.3844532z" fill="#9e9e9e" data-original="#9E9E9E" class="" style="fill:#9E9E9E"/><circle id="Oval" cx="39" cy="39" fill="#0377bc" r="9" data-original="#0377BC" class="" style="fill:#02A9F4" data-old_color="#0377bc"/><path id="Shape" d="m44 39c.0148379 4.2007853-2.891729 7.8475079-6.99 8.77-1.6595211-.3645441-3.1796404-1.1974862-4.38-2.4-2.3104668-2.3185775-3.1817573-5.7078146-2.2759474-8.8532187.9058098-3.1454041 3.4462192-5.5521437 6.6359474-6.2867813 4.1070709.9130622 7.0242712 4.5626838 7.01 8.77z" fill="#02a9f4" data-original="#02A9F4" class="" style="fill:#02A9F4"/><path id="Shape" d="m52.44 48.2-4.24 4.24h-.01l-3.09-3.1c1.7504187-1.030396 3.209604-2.4895813 4.24-4.24z" fill="#606060" data-original="#606060" class=""/><path id="Shape" d="m57.12 57.12c-.9581192.9642104-2.4474228 1.157573-3.62.47-.513-.28-.493-.343-5.3-5.15l4.24-4.24 4.68 4.68c1.1698135 1.1712702 1.1698135 3.0687298 0 4.24z" fill="#283593" data-original="#283593" class="" style="fill:#FFDC00" data-old_color="#283593"/><path id="Shape" d="m53.5 57.59c-.513-.28-.493-.343-5.3-5.15l2.74-2.74 3.18 3.18c.6582014.658167.9728497 1.5850249.8513702 2.5078768-.1214794.9228518-.6652665 1.7367097-1.4713702 2.2021232z" fill="#3f51b5" data-original="#3F51B5" class="" style="fill:#FFDC00" data-old_color="#3f51b5"/></g><g id="Outline" fill="#000"><path id="Shape" d="m11.6 38c1.1972204.6509238 2.537279.9945286 3.9 1 2.958 0 4.651.216 6.882-.987 2.8639698-1.5816321 4.6352302-4.6013665 4.618-7.873v-12.14c-.0001583-.7668007-.4387181-1.4660054-1.1289797-1.7999548-.6902617-.3339495-1.5106902-.2438451-2.1120203.2319548l-3.642 2.907c-2.0535849-.4504865-4.1804151-.4504865-6.234 0l-3.649-2.913c-.60224784-.4721783-1.42113882-.5592952-2.10924739-.2243901-.68810858.334905-1.12478081 1.0331092-1.12475261 1.7983901v12.14c-.02478724 3.2655063 1.7407851 6.2823321 4.6 7.86zm3.9-1c-.8611209.0000848-1.7127214-.1801138-2.5-.529v-2.471c0-1.1045695.8954305-2 2-2h4c1.1045695 0 2 .8954305 2 2v2.471c-1.567.692-2.634.529-5.5.529zm-6.50006141-19.006c4.20006141 3.351 4.14106141 3.44 4.68806141 3.4l.152-.018c2.1315117-.496437 4.34928-.4902747 6.478.018.557.043.509-.058 4.685-3.392v12.138c.0080321 1.8451403-.7104051 3.6193211-2 4.939v-1.079c0-2.209139-1.790861-4-4-4-2.179 0-2.108.041-2.2-.112s-.1-.055 1.1-2.441c.2468713-.4942948.0462948-1.0951287-.448-1.342-.4942949-.2468713-1.0951287-.0462948-1.342.448-1.084 2.167-1.42 2.564-1.314 3.468-2.1221795.1067575-3.790528 1.8541538-3.799 3.979v1.079c-1.28931937-1.3198591-2.00770884-3.0939219-2-4.939z" data-original="#000" class="" data-old_color="#000" style="fill:#0E2A47"/><path id="Shape" d="m13 27h1c.5522847 0 1-.4477153 1-1s-.4477153-1-1-1h-1c-.5522847 0-1 .4477153-1 1s.4477153 1 1 1z" data-original="#000" class="" data-old_color="#000" style="fill:#0E2A47"/><path id="Shape" d="m20 27h1c.5522847 0 1-.4477153 1-1s-.4477153-1-1-1h-1c-.5522847 0-1 .4477153-1 1s.4477153 1 1 1z" data-original="#000" class="" data-old_color="#000" style="fill:#0E2A47"/><path id="Shape" d="m18 33h-2c-.5522847 0-1 .4477153-1 1s.4477153 1 1 1h2c.5522847 0 1-.4477153 1-1s-.4477153-1-1-1z" data-original="#000" class="" data-old_color="#000" style="fill:#0E2A47"/><path id="Shape" d="m13 12h.307l-.244.648c-.1932996.5174908.0695092 1.0937003.587 1.287.5174908.1932996 1.0937003-.0695092 1.287-.587l.506-1.348h1.864l-.244.648c-.1932996.5174908.0695092 1.0937003.587 1.287.5174908.1932996 1.0937003-.0695092 1.287-.587l.506-1.348h1.557c.5522847 0 1-.4477153 1-1s-.4477153-1-1-1h-.807l.75-2h1.057c.5522847 0 1-.44771525 1-1s-.4477153-1-1-1h-.307l.244-.648c.1932996-.51749081-.0695092-1.09370032-.587-1.28699998s-1.0937003.06950918-1.287.58699998l-.506 1.348h-1.864l.244-.648c.1932997-.51749081-.0695092-1.09370034-.587-1.287s-1.0937003.06950919-1.287.587l-.506 1.348h-1.557c-.5522847 0-1 .44771525-1 1s.4477153 1 1 1h.807l-.75 2h-1.057c-.5522847 0-1 .4477153-1 1s.4477153 1 1 1zm3.943-4h1.864l-.75 2h-1.864z" data-original="#000" class="" data-old_color="#000" style="fill:#0E2A47"/><path id="Shape" d="m24 14h5c.5522847 0 1-.4477153 1-1s-.4477153-1-1-1h-1.557l2.494-6.648c.1535199-.40678008.0266056-.86614476-.3139711-1.13641477-.3405768-.27027001-.8167628-.28950504-1.1780289-.04758523l-3 2c-.297245.1982824-.4661282.5400812-.4430331.8966441s.2346599.6737195.555.832c.32034.15828049.7007881.1336383.9980331-.0646441l.42-.28-1.668 4.448h-1.307c-.5522847 0-1 .4477153-1 1s.4477153 1 1 1z" data-original="#000" class="" data-old_color="#000" style="fill:#0E2A47"/><path id="Shape" d="m46.364 33.636c-2.5738794-2.5742523-6.4450422-3.3444931-9.8082717-1.9515405-3.3632296 1.3929526-5.5561503 4.6747616-5.5561503 8.3150405s2.1929207 6.9220879 5.5561503 8.3150405c3.3632295 1.3929526 7.2343923.6227118 9.8082717-1.9515405 3.514104-3.5146131 3.514104-9.2123869 0-12.727zm-1.414 11.313c-2.7337438 2.7334648-7.1657688 2.7333141-9.8993266-.0003367s-2.7335578-7.1656758 0-9.8993266 7.1655828-2.7338015 9.8993266-.0003367c1.3129091 1.3127752 2.0505051 3.0933608 2.0505051 4.95s-.737596 3.6372248-2.0505051 4.95z" data-original="#000" class="" data-old_color="#000" style="fill:#0E2A47"/><path id="Shape" d="m51.57 45.916c2.56937-5.0342476 1.5915485-11.1518163-2.4190456-15.1343339-4.010594-3.9825176-10.134881-4.9173386-15.1509544-2.3126661v-26.469c0-1.1045695-.8954305-2-2-2h-29c-1.65685425 0-3 1.34314575-3 3v42c0 1.6568542 1.34314575 3 3 3h26.765c3.8295089 4.9114371 10.6081692 6.409785 16.151 3.57 15.4 15.394.332.326 7.26 7.257 1.5758985 1.4706679 4.0337241 1.4281242 5.5577809-.0962022s1.5661657-3.9821594.0952191-5.5577978c-10.364-10.355 2.171 2.171-7.259-7.257zm-48.57-43.916h29v27.765c-3.7171445 2.8948501-5.5659821 7.5820712-4.826 12.235-26.465 0-24.434-.08-25.174.184v-39.184c0-.55228475.44771525-1 1-1zm0 44c-.55228475 0-1-.4477153-1-1s.44771525-1 1-1h24.644c.2184237.6886239.494397 1.3576501.825 2zm29.222 1.778c-3.1460803-3.1459391-4.0872842-7.877274-2.3847221-11.9877529s5.7135925-6.7905963 10.1627221-6.7905963 8.46016 2.6801174 10.1627221 6.7905963.7613582 8.8418138-2.3847221 11.9877529c-4.2977819 4.2905712-11.2582181 4.2905712-15.556 0zm18.263-.119 1.534 1.534-2.825 2.826-1.534-1.534c1.0948957-.775238 2.0501495-1.73083 2.825-2.826zm6.929 9.755c-.7914484.7512434-2.0325516.7512434-2.824 0l-3.982-3.98 2.826-2.826 3.981 3.98c.7791557.7810459.7787082 2.0455057-.001 2.826z" data-original="#000" class="" data-old_color="#000" style="fill:#0E2A47"/><path id="Shape" d="m38.533 34.9c-.151.05-3.684 1.27-3.684 4.949 0 .5522847.4477153 1 1 1s1-.4477153 1-1c.0832063-1.3934948 1.0007678-2.5983377 2.322-3.049.3394023-.1139677.5922219-.4003472.6632241-.7512621s-.0505999-.7130528-.319-.95-.6428218-.3127056-.9822241-.1987379z" data-original="#000" class="" data-old_color="#000" style="fill:#0E2A47"/><path id="Shape" d="m5 7c.55228475 0 1-.44771525 1-1v-1c0-.55228475-.44771525-1-1-1s-1 .44771525-1 1v1c0 .55228475.44771525 1 1 1z" data-original="#000" class="" data-old_color="#000" style="fill:#0E2A47"/><path id="Shape" d="m5 17c.55228475 0 1-.4477153 1-1v-6c0-.55228475-.44771525-1-1-1s-1 .44771525-1 1v6c0 .5522847.44771525 1 1 1z" data-original="#000" class="" data-old_color="#000" style="fill:#0E2A47"/></g></g></g> </svg>
