<?xml version="1.0"?>
<svg xmlns="http://www.w3.org/2000/svg" id="Capa_1" enable-background="new 0 0   512" height="63px" viewBox="0 0 512 512" width="63px" class=""><g><g><g><g clip-rule="evenodd" fill-rule="evenodd"><path d="m240.926 191h30.149v30.149h-30.149z" fill="#e0dfde" data-original="#E0DFDE" class=""/><path d="m118.485 372.223h275.029v44.554h-275.029z" fill="#e0dfde" data-original="#E0DFDE" class=""/><path d="m186.585 251.148h138.829l48.086 121.075h-235z" fill="#e0dfde" data-original="#E0DFDE" class=""/><path d="m256 504.5c34.518 0 62.5-27.982 62.5-62.5 0-8.976-1.894-17.509-5.302-25.223h-114.395c-3.408 7.714-5.303 16.247-5.303 25.223 0 34.517 27.982 62.5 62.5 62.5z" fill="#ffcf7b" data-original="#FFCF7B" class="" style="fill:#FFE529" data-old_color="#ffcf7b"/><path d="m198.5 221.148h115l11.914 30h-138.829z" fill="#e0dfde" data-original="#E0DFDE" class=""/><path d="m118.485 372.223h30v44.554h-30z" fill="#bfbec1" data-original="#BFBEC1" class=""/><path d="m186.585 251.148h30l-48.085 121.075h-30z" fill="#bfbec1" data-original="#BFBEC1" class=""/><path d="m256 504.5c5.171 0 10.194-.633 15-1.816-27.272-6.719-47.5-31.337-47.5-60.684 0-8.976 1.894-17.509 5.302-25.223h-30c-3.408 7.714-5.303 16.247-5.303 25.223.001 34.517 27.983 62.5 62.501 62.5z" fill="#ffaf02" data-original="#FFAF02" class="" style="fill:#FFE529" data-old_color="#ffaf02"/><path d="m198.5 221.148h30l-11.915 30h-30z" fill="#bfbec1" data-original="#BFBEC1" class=""/></g><g><path d="m263.5 461.776-.001-15h15l.001 15zm-15 0h-15v-15h15z" fill="#fff" data-original="#FFF" class="" data-old_color="#fff" style="fill:#E3E9ED"/></g><g><path d="m294.15 334.724h-15.434v-15h15.434zm-30.433 0h-15.434v-15h15.434zm-30.434 0h-15.433v-15h15.434v15z" fill="#fff" data-original="#FFF" class="" data-old_color="#fff" style="fill:#E3E9ED"/></g></g><g><path d="m401.015 364.723h-22.424l-19.395-48.835-13.94 5.536 17.196 43.299h-212.904l42.128-106.075h29.324v-15h-23.366l5.957-15h104.817l5.957 15h-78.365v15h84.324l19.395 48.835 13.94-5.536-35.068-88.299h-40.017v-30.148h-15.074v-78.501h-15v78.501h-15.074v30.149h-40.017l-60 151.075h-22.424v59.554h77.277c-4.956 18.903-1.762 39.164 9.189 55.975 12.952 19.878 34.839 31.747 58.549 31.747s45.597-11.869 58.548-31.749c10.951-16.811 14.145-37.072 9.189-55.975h77.277v-59.553zm-152.589-166.223h15.148v15.149h-15.148zm137.589 210.777h-149.713v15h71.754c5.422 15.889 3.278 33.427-6.076 47.787-10.324 15.847-27.083 24.936-45.98 24.936s-35.656-9.089-45.98-24.936c-9.354-14.36-11.497-31.898-6.076-47.787h17.358v-15h-95.317v-29.554h260.029v29.554z" data-original="#000000" class="active-path" style="fill:#0E2A47" data-old_color="#000000"/><path d="m248.5 0h15v30h-15z" data-original="#000000" class="active-path" style="fill:#0E2A47" data-old_color="#000000"/><path d="m248.5 45h15v15h-15z" data-original="#000000" class="active-path" style="fill:#0E2A47" data-old_color="#000000"/><path d="m248.5 74.999h15v15h-15z" data-original="#000000" class="active-path" style="fill:#0E2A47" data-old_color="#000000"/></g></g></g> </svg>
