<?xml version="1.0"?>
<svg xmlns="http://www.w3.org/2000/svg" id="Layer_1" enable-background="new 0 0 512 512" height="63px" viewBox="0 0 512 512" width="63px" class=""><g><g><path d="m421 496v-112h-280c-15.46 0-29.46 6.27-39.6 16.4-10.13 10.14-16.4 24.14-16.4 39.6 0 30.93 25.07 56 56 56z" fill="#e2e0e0" data-original="#E2E0E0" style="fill:#E2E0E0"/><path d="m440 384v-368c0-8.84-7.16-16-16-16h-286c-36.39 0-66 29.61-66 66v374c0 39.7 32.3 72 72 72h280c8.84 0 16-7.16 16-16s-7.16-16-16-16h-280c-22.06 0-40-17.94-40-40s17.94-40 40-40h280c8.84 0 16-7.16 16-16z" fill="#b59f89" data-original="#B59F89" style="fill:#FFE529" class="active-path" data-old_color="#b59f89"/><path d="m392 424h-248c-8.837 0-16 7.164-16 16s7.163 16 16 16h248c8.837 0 16-7.164 16-16s-7.163-16-16-16z" fill="#cecccc" data-original="#CECCCC" style="fill:#CECCCC" class=""/><path d="m210 0h-72c-36.39 0-66 29.61-66 66v374c0 39.7 32.3 72 72 72v-32c-22.06 0-40-17.94-40-40s17.94-40 40-40v-334c0-36.39 29.61-66 66-66z" fill="#a18b76" data-original="#A18B76" class="" data-old_color="#a18b76" style="fill:#FFCE00"/></g></g> </svg>
  