<?xml version="1.0"?>
<svg xmlns="http://www.w3.org/2000/svg" height="63px" viewBox="0 0 512 512" width="63px" class=""><g><g><g><path d="m152 248h208v224h-208z" fill="#a0815c" data-original="#A0815C" style="fill:#A0815C" class=""/><g fill="#5f4d37"><path d="m176 496h-24v-24h32z" data-original="#5F4D37" class="" style="fill:#5F4D37"/><path d="m360 496h-24l-8-24h32z" data-original="#5F4D37" class="" style="fill:#5F4D37"/><path d="m176 272h160v176h-160z" data-original="#5F4D37" class="" style="fill:#5F4D37"/></g><path d="m320 160h-128l16-144h96z" fill="#ffda44" data-original="#FFDA44" class="" style="fill:#FFDA44"/><path d="m208 224h96v24h-96z" fill="#e0e0e2" data-original="#E0E0E2" style="fill:#E0E0E2" class=""/></g><g><path d="m360 240h-48v-16a8 8 0 0 0 -8-8h-40v-48h56a8.007 8.007 0 0 0 7.95-8.88l-16-144a7.992 7.992 0 0 0 -7.95-7.12h-96a7.992 7.992 0 0 0 -7.95 7.12l-16 144a8.007 8.007 0 0 0 7.95 8.88h56v48h-40a8 8 0 0 0 -8 8v16h-48a8 8 0 0 0 -8 8v248a8 8 0 0 0 8 8h24a8 8 0 0 0 7.59-5.47l6.18-18.53h132.46l6.18 18.53a8 8 0 0 0 7.59 5.47h24a8 8 0 0 0 8-8v-248a8 8 0 0 0 -8-8zm-159.06-88 14.22-128h81.68l14.22 128zm15.06 80h80v8h-80zm-45.77 256h-10.23v-8h12.9zm181.77 0h-10.23l-2.67-8h12.9zm0-24h-192v-208h192z" data-original="#000000" class="active-path" data-old_color="#000000" style="fill:#0E2A47"/><path d="m336 264h-160a8 8 0 0 0 -8 8v176a8 8 0 0 0 8 8h160a8 8 0 0 0 8-8v-176a8 8 0 0 0 -8-8zm-8 176h-144v-72h144zm0-88h-144v-72h144z" data-original="#000000" class="active-path" data-old_color="#000000" style="fill:#0E2A47"/><path d="m240 304h32a8 8 0 0 0 0-16h-32a8 8 0 0 0 0 16z" data-original="#000000" class="active-path" data-old_color="#000000" style="fill:#0E2A47"/><path d="m272 376h-32a8 8 0 0 0 0 16h32a8 8 0 0 0 0-16z" data-original="#000000" class="active-path" data-old_color="#000000" style="fill:#0E2A47"/></g></g></g> </svg>
  