<?xml version="1.0"?>
<svg xmlns="http://www.w3.org/2000/svg" id="Layer_1" enable-background="new 0 0 512 512" height="85px" viewBox="0 0 512 512" width="90px" class=""><g><g><path d="m256 22.002c-135.309 0-244.999 109.69-244.999 244.999 0 41.159 10.165 79.938 28.097 113.989l330.951 102.881c77.86-41.031 130.95-122.744 130.95-216.87 0-135.309-109.69-244.999-244.999-244.999z" fill="#00adf4" data-original="#00ADF4" class="active-path" style="fill:#374957" data-old_color="#00adf4"/><path d="m174.418 179.621c52.851 0 52.851-22.409 105.701-22.409 47.48 0 52.315 18.081 91.122 21.758v-120.994c0-30.961-25.332-57.976-56.292-57.976h-220.19c-30.96 0-56.292 27.015-56.292 57.976v321.818c8.675 16.697 19.222 32.264 31.352 46.436l269.565 71.195c11.006-3.986 21.648-8.73 31.856-14.182v-82.423c-38.807-3.677-43.642-21.758-91.122-21.758-52.851 0-52.851 22.409-105.701 22.409s-52.85-22.409-105.699-22.409v-221.85c52.851 0 52.851 22.409 105.7 22.409z" fill="#41416b" data-original="#41416B" class=""/><path d="m184.398 435.256c0-11.902 2.719-19.646 5.667-24.545 1.898-3.154 1.807-6.948.049-9.999-4.684.485-9.868.758-15.697.758-52.85 0-52.85-22.409-105.699-22.409v-221.849c52.85 0 52.85 22.409 105.699 22.409 3.254 0 6.306-.086 9.184-.245-.466-2.371-1.8-4.529-3.811-5.985-9.113-6.604-8.425-19.54-8.425-19.54s0-40.928 0-65.467c0-13.633 4.264-22.122 8.054-26.975 2.717-3.478 2.734-8.404.072-11.924-14.33-18.955-6.64-34.933-.184-43.272 1.422-1.836 2.081-4.036 2.024-6.213h-86.572c-30.96 0-56.292 27.015-56.292 57.976v321.818c8.675 16.697 19.222 32.264 31.352 46.436l114.579 30.262z" fill="#35355e" data-original="#35355E" class=""/><path d="m174.418 179.621c52.851 0 52.851-22.409 105.702-22.409 31.7 0 44.389 8.06 60.869 14.513v-113.749c0-14.322-11.718-26.041-26.041-26.041h-35.728c-6.671 0-12.666 3.722-16.008 9.495-5.021 8.673-14.403 14.541-25.094 14.541h-66.527c-10.691 0-20.073-5.868-25.094-14.541-3.342-5.773-9.337-9.495-16.008-9.495h-35.729c-14.322 0-26.041 11.718-26.041 26.041v99.236c52.85 0 52.85 22.409 105.699 22.409z" fill="#ffdd40" data-original="#FFDD40" class=""/><path d="m179.792 173.391c-9.113-6.604-8.425-19.54-8.425-19.54s0-40.928 0-65.467c0-13.633 4.264-22.122 8.054-26.975 1.249-1.599 1.92-3.504 2.03-5.437h-9.861c-10.691 0-20.073-5.868-25.094-14.541-3.342-5.773-9.337-9.495-16.008-9.495h-35.728c-14.322 0-26.041 11.718-26.041 26.041v99.236c52.849 0 52.849 22.409 105.699 22.409 3.254 0 6.307-.086 9.185-.245-.466-2.372-1.8-4.529-3.811-5.986z" fill="#ffb332" data-original="#FFB332" class=""/><path d="m174.418 401.471c-52.85 0-52.85-22.409-105.699-22.409v45.878c44.942 53.236 112.156 87.06 187.281 87.06 29.882 0 58.511-5.358 84.989-15.152v-103.274c-16.481-6.453-29.169-14.513-60.869-14.513-52.851.001-52.851 22.41-105.702 22.41z" fill="#ffdd40" data-original="#FFDD40" class=""/><path d="m68.719 379.062v45.878c30.037 35.581 70.032 62.47 115.679 76.405v-66.089c0-11.902 2.719-19.646 5.667-24.545 1.898-3.154 1.807-6.948.049-9.999-4.685.485-9.868.758-15.697.758-52.849.001-52.849-22.408-105.698-22.408z" fill="#ffb332" data-original="#FFB332" class=""/><g><path d="m404.198 51.71c-4.63.309-8.635-3.194-8.944-7.825l-1.619-24.252c-.31-4.632 3.193-8.636 7.825-8.945 4.63-.309 8.635 3.194 8.944 7.825l1.619 24.252c.309 4.623-3.186 8.636-7.825 8.945z" fill="#ffdd40" data-original="#FFDD40" class=""/></g><g><path d="m484.495 99.121-24.253 1.619c-4.631.309-8.635-3.194-8.944-7.825-.31-4.632 3.194-8.636 7.825-8.945l24.253-1.619c4.631-.309 8.635 3.194 8.944 7.825.308 4.623-3.186 8.635-7.825 8.945z" fill="#ffdd40" data-original="#FFDD40" class=""/></g><g><path d="m436.283 62.558c-3.494-3.056-3.848-8.365-.792-11.858l16.004-18.294c3.058-3.492 8.365-3.848 11.858-.792 3.494 3.056 3.848 8.365.792 11.858l-16.005 18.294c-3.044 3.478-8.349 3.862-11.857.792z" fill="#ffdd40" data-original="#FFDD40" class=""/></g><g><path d="m100.085 103.323c-6.188 0-11.204-5.017-11.204-11.205v-7.469c0-6.188 5.016-11.204 11.204-11.204s11.205 5.017 11.205 11.204v7.469c0 6.188-5.017 11.205-11.205 11.205z" fill="#fceca9" data-original="#FCECA9"/></g><g><path d="m132.225 103.323c-6.188 0-11.205-5.017-11.205-11.205v-20.059c0-6.188 5.016-11.204 11.205-11.204 6.188 0 11.205 5.017 11.205 11.204v20.059c-.001 6.188-5.017 11.205-11.205 11.205z" fill="#fceca9" data-original="#FCECA9"/></g><g><path d="m306.444 89.877h-22.814c-6.188 0-11.205-5.017-11.205-11.204 0-6.188 5.016-11.204 11.205-11.204h22.814c6.188 0 11.204 5.017 11.204 11.204s-5.016 11.204-11.204 11.204z" fill="#fceca9" data-original="#FCECA9"/></g><path d="m481.494 154.145c-43.057 2.637-46.392 22.115-95.668 22.115-52.853 0-52.853-22.409-105.706-22.409-52.851 0-52.851 22.409-105.702 22.409-52.849 0-52.849-22.409-105.699-22.409v228.572c52.849 0 52.849 22.409 105.699 22.409 52.851 0 52.851-22.409 105.702-22.409 52.853 0 52.853 22.409 105.706 22.409 49.678 0 52.663-19.798 96.731-22.176 5.022-.271 8.975-4.388 8.975-9.418v-209.677c.001-5.446-4.603-9.749-10.038-9.416z" fill="#ff4155" data-original="#FF4155" class=""/><path d="m68.719 153.851v228.572c52.849 0 52.849 22.409 105.699 22.409 6.327 0 11.889-.324 16.883-.889-.379-2.1-1.432-4.092-3.1-5.644-5.496-5.113-5.47-11.71-5.47-11.71s0-18 0-34.333c0-10.719 6.975-15.71 11.77-17.874 2.88-1.3 4.904-3.976 5.502-7.079l16.77-86.978c.896-4.648-1.666-9.278-6.085-10.976-27.306-10.489-28.188-35.393-26.943-47.109.233-2.19-.304-4.353-1.444-6.162-2.495.117-5.113.182-7.883.182-52.849 0-52.849-22.409-105.699-22.409z" fill="#e80054" data-original="#E80054" class=""/><g fill="#e3e7fc"><path d="m242.944 232.023c-.038-.102-.078-.202-.12-.303-2.041-4.964-6.826-8.17-12.193-8.17-.003 0-.008 0-.011 0-5.372.004-10.158 3.219-12.192 8.191-.035.085-.068.17-.101.255l-32.792 86.1c-2.203 5.783.7 12.257 6.483 14.459 5.782 2.203 12.257-.7 14.459-6.482l5.419-14.228h37.219l5.357 14.196c1.693 4.486 5.957 7.251 10.484 7.251 1.315 0 2.652-.233 3.954-.725 5.789-2.184 8.712-8.648 6.527-14.438zm-22.513 57.413 10.16-26.676 10.067 26.676z" data-original="#E3E7FC" class=""/><path d="m322.653 310.805c-.021 0-.043 0-.064 0-5.905.033-13.331.063-19.313.071v-76.122c0-6.188-5.016-11.205-11.204-11.205s-11.204 5.017-11.204 11.205v87.255c0 5.453 3.927 10.116 9.302 11.042.814.14 1.409.244 11.03.244 4.681 0 11.499-.025 21.515-.081 6.188-.035 11.176-5.079 11.142-11.268-.036-6.166-5.045-11.141-11.204-11.141z" data-original="#E3E7FC" class=""/><path d="m387.208 246.357c6.188 0 11.205-5.017 11.205-11.205s-5.016-11.204-11.205-11.204h-36.461c-6.188 0-11.205 5.017-11.205 11.204v86.532c0 6.188 5.016 11.204 11.205 11.204h36.461c6.188 0 11.205-5.017 11.205-11.204 0-6.188-5.016-11.205-11.205-11.205h-25.257v-20.856h22.568c6.188 0 11.205-5.017 11.205-11.205s-5.016-11.204-11.205-11.204h-22.568v-20.857z" data-original="#E3E7FC" class=""/></g><path d="m159.169 268.596c-10.677-3.939-20.621-8.226-23.726-9.585-2.233-1.82-2.156-4.341-2.005-5.394.213-1.487 1.298-5.122 6.744-6.762 12.143-3.659 23.429 5.234 23.767 5.504 4.738 3.927 11.764 3.299 15.727-1.417 3.982-4.737 3.37-11.805-1.367-15.787-.829-.696-20.581-16.984-44.591-9.757-12.164 3.665-20.771 13.257-22.462 25.035-1.588 11.057 3.205 21.693 12.508 27.76.495.323 1.015.606 1.555.847.506.225 12.54 5.582 26.094 10.581 3.761 1.387 12.386 5.292 11.265 11.568-.85 4.764-6.683 9.692-14.971 9.692-8.6 0-16.872-3.463-22.13-9.264-4.156-4.587-11.242-4.933-15.826-.779-4.586 4.156-4.934 11.241-.779 15.826 9.434 10.411 23.915 16.626 38.735 16.626 18.544 0 34.118-11.844 37.032-28.162 2.195-12.293-3.37-28.344-25.57-36.532z" fill="#c8cefc" data-original="#C8CEFC" class=""/><path d="m431.119 309.176c-6.549 0-11.858 5.309-11.858 11.858s5.309 11.858 11.858 11.858 11.858-5.309 11.858-11.858-5.309-11.858-11.858-11.858z" fill="#e3e7fc" data-original="#E3E7FC" class=""/><path d="m431.119 298.206c6.188 0 11.204-5.017 11.204-11.204v-52.247c0-6.188-5.016-11.205-11.204-11.205s-11.205 5.017-11.205 11.205v52.247c0 6.187 5.017 11.204 11.205 11.204z" fill="#e3e7fc" data-original="#E3E7FC" class=""/></g></g> </svg>
